# xmcd
#
# Track frame offsets: 
#        150
#        1724
#        17557
#        32988
#        46909
#        61760
#        64984
#        82572
#        84694
#        102483
#        125292
#        145541
#        162266
#        185974
#        199442
#
# Disc length: 2917 seconds
#
# Revision: 0
# Processed by: cddbd v1.5.2PL0 Copyright (c) Steve Scherf et al.
# Submitted via: ExactAudioCopy v0.99pb5
#
DISCID=c00b630f
DTITLE=A_Rival - 8-Bit Pimp
DYEAR=2010
DGENRE=Rap
TTITLE0=Intro
TTITLE1=Go For Broke
TTITLE2=A_Rival
TTITLE3=Cybernetic Mariachi
TTITLE4=Burn Breather
TTITLE5=Before
TTITLE6=Show Me Girl
TTITLE7=After
TTITLE8=Push It Down
TTITLE9=Circuitry
TTITLE10=Higher
TTITLE11=Serious Business
TTITLE12=Secrets
TTITLE13=8-Bit Pimp
TTITLE14=Last Boss
EXTD=
EXTT0=
EXTT1=
EXTT2=
EXTT3=
EXTT4=
EXTT5=
EXTT6=
EXTT7=
EXTT8=
EXTT9=
EXTT10=
EXTT11=
EXTT12=
EXTT13=
EXTT14=
PLAYORDER=
